<svg width="35" height="31" viewBox="0 0 35 31" fill="none" xmlns="http://www.w3.org/2000/svg">
<path d="M26.4542 27.9258C25.1709 28.2617 23.6542 28.4167 21.8751 28.4167H13.1251C11.3459 28.4167 9.82923 28.2617 8.5459 27.9258C8.86673 24.5675 12.7605 21.9196 17.5001 21.9196C22.2396 21.9196 26.1334 24.5675 26.4542 27.9258Z" stroke="CurrentColor" stroke-width="1.5" stroke-linecap="round" stroke-linejoin="round"/>
<path d="M21.8748 2.58334H13.1248C5.83317 2.58334 2.9165 5.16668 2.9165 11.625V19.375C2.9165 24.2575 4.579 26.9313 8.54567 27.9258C8.8665 24.5675 12.7603 21.9196 17.4998 21.9196C22.2394 21.9196 26.1332 24.5675 26.454 27.9258C30.4207 26.9313 32.0832 24.2575 32.0832 19.375V11.625C32.0832 5.16668 29.1665 2.58334 21.8748 2.58334ZM17.4998 18.3029C14.6123 18.3029 12.279 16.2233 12.279 13.6658C12.279 11.1083 14.6123 9.04168 17.4998 9.04168C20.3873 9.04168 22.7207 11.1083 22.7207 13.6658C22.7207 16.2233 20.3873 18.3029 17.4998 18.3029Z" stroke="CurrentColor" stroke-width="1.5" stroke-linecap="round" stroke-linejoin="round"/>
<path d="M22.721 13.6658C22.721 16.2233 20.3876 18.3029 17.5001 18.3029C14.6126 18.3029 12.2793 16.2233 12.2793 13.6658C12.2793 11.1083 14.6126 9.04166 17.5001 9.04166C20.3876 9.04166 22.721 11.1083 22.721 13.6658Z" stroke="CurrentColor" stroke-width="1.5" stroke-linecap="round" stroke-linejoin="round"/>
</svg>
